<svg width="295" height="345" viewBox="0 0 295 345" fill="none" xmlns="http://www.w3.org/2000/svg">
<path d="M292.274 303.634C294.102 301.49 294.767 299.542 294.269 297.788C294.021 295.964 293.147 294.317 291.647 292.848C290.076 291.128 288.004 289.551 285.431 288.116C282.929 286.932 279.268 283.099 274.449 276.616C269.701 270.385 264.402 262.686 258.55 253.519C252.376 244.173 246.079 233.915 239.658 222.744C232.986 211.644 226.636 200.724 220.608 189.983C214.579 179.243 209.176 169.272 204.397 160.071C199.618 150.87 195.91 143.531 193.271 138.054C190.026 131.396 186.479 124.147 182.628 116.307C179.312 109.398 175.551 101.397 171.344 92.3043C167.066 82.9613 162.629 72.5807 158.033 61.1625L124.13 56.1725C119.302 55.3779 116.438 56.7327 115.538 60.2368C114.567 63.4904 116.239 69.3774 120.554 77.8977C122.586 82.1935 126.063 89.1922 130.984 98.8939C135.834 108.345 141.38 118.817 147.622 130.309C153.542 141.622 159.819 153.24 166.454 165.162C172.767 176.905 178.688 187.27 184.219 196.257C189.356 204.815 195.261 214.643 201.932 225.743C213.528 244.648 229.513 270.429 249.886 303.084C248.087 310.092 242.427 314.948 232.908 317.652C222.386 320.64 209.098 320.082 193.044 315.979C176.738 311.947 159.796 303.764 142.216 291.431C124.636 279.098 107.546 262.295 90.9464 241.02C74.0248 219.567 59.7226 193.038 48.0396 161.434C41.8068 144.254 38.3081 128.598 37.5435 114.468C36.7788 100.337 38.2472 87.873 41.9487 77.076C45.3997 66.3502 50.994 57.452 58.7317 50.3816C66.2189 43.3823 75.3485 38.353 86.1204 35.2937C111.422 28.1079 140.588 31.1945 173.62 44.5536L166.641 12.8315C158.064 7.41654 149.109 4.00415 139.775 2.59433C130.119 1.00515 121.374 0.240145 113.541 0.299311C104.383 0.463698 95.3846 1.6657 86.5456 3.90531C70.513 8.45867 55.996 15.9655 42.9946 26.4259C29.6715 36.7069 19.4027 49.6398 12.1881 65.2246C4.72296 80.8805 0.813104 99.046 0.458501 119.721C0.0327525 140.146 4.28955 162.76 13.2289 187.563C18.3574 201.808 25.6679 216.11 35.1603 230.469C44.331 244.649 55.059 258.116 67.344 270.87C79.3786 283.695 92.7028 295.342 107.317 305.81C121.93 316.278 137.048 324.708 152.67 331.1C168.363 337.742 184.293 341.881 200.458 343.517C216.696 345.402 232.58 344.14 248.111 339.729C252.8 338.126 257.686 335.791 262.771 332.723C267.175 330.118 271.956 326.459 277.114 321.746C282.273 317.032 287.326 310.995 292.274 303.634Z" fill="#E0EDFF"/>
</svg>
