<svg width="286" height="363" viewBox="0 0 286 363" fill="none" xmlns="http://www.w3.org/2000/svg">
<path d="M189.107 362.637C186.335 363.138 184.317 362.733 183.052 361.42C181.599 360.288 180.616 358.704 180.101 356.669C179.406 354.446 179.085 351.861 179.14 348.916C179.375 346.157 177.904 341.065 174.727 333.639C171.73 326.401 167.743 317.947 162.766 308.278C157.795 298.24 152.098 287.636 145.675 276.467C139.44 265.116 133.197 254.134 126.948 243.52C120.699 232.907 114.801 223.22 109.254 214.461C103.707 205.702 99.2309 198.804 95.825 193.769C91.7032 187.614 87.2234 180.901 82.3856 173.628C78.0831 167.287 73.0612 160.011 67.32 151.8C61.3981 143.403 54.6596 134.345 47.1046 124.628L59.8503 92.8183C61.5927 88.2463 64.2044 86.453 67.6854 87.4384C70.9857 88.2364 75.2321 92.6432 80.4244 100.659C83.1143 104.577 87.4134 111.102 93.3217 120.237C99.0493 129.183 105.309 139.245 112.1 150.421C118.898 161.229 125.78 172.5 132.745 184.232C139.717 195.596 145.695 205.928 150.679 215.23C155.489 223.975 161.012 234.023 167.248 245.373C177.752 264.906 191.989 291.692 209.959 325.729C216.921 327.7 223.965 325.252 231.091 318.386C238.967 310.797 245.171 299.032 249.703 283.093C254.422 266.974 255.875 248.215 254.062 226.817C252.249 205.419 246.326 182.195 236.293 157.146C226.266 131.728 210.536 106.02 189.102 80.0221C177.391 65.9917 165.622 55.0913 153.794 47.3207C141.967 39.5501 130.457 34.548 119.264 32.3144C108.258 29.9001 97.7538 30.2577 87.7503 33.3873C77.9344 36.3361 68.9946 41.6955 60.9309 49.4653C41.9907 67.7155 29.9834 94.4742 24.9088 129.741L1.00589 107.75C0.641439 97.6133 2.1982 88.1572 5.67616 79.3814C9.16095 70.2373 12.8997 62.2951 16.8924 55.5548C21.6421 47.7234 27.2083 40.5518 33.591 34.04C45.5927 22.4755 59.3843 13.7069 74.9658 7.73404C90.554 1.393 106.897 -0.974281 123.996 0.632185C141.282 2.05796 158.948 7.81887 176.993 17.9149C194.859 27.8235 212.26 42.8802 229.198 63.0853C238.928 74.6846 247.609 88.1983 255.243 103.626C262.883 118.686 269.123 134.733 273.964 151.767C278.992 168.62 282.353 185.995 284.047 203.891C285.741 221.787 285.42 239.094 283.084 255.81C280.929 272.714 276.491 288.563 269.77 303.356C263.23 318.337 254.147 331.429 242.52 342.632C238.777 345.878 234.3 348.926 229.09 351.776C224.624 354.272 219.056 356.563 212.387 358.649C205.718 360.735 197.958 362.065 189.107 362.637Z" fill="#E0EDFF"/>
</svg>
