<svg width="131" height="55" fill="none" xmlns="http://www.w3.org/2000/svg"><path d="M15.363.436c3.186 0 5.97.64 8.353 1.919 2.382 1.279 4.22 3.081 5.511 5.407 1.32 2.297 1.98 4.957 1.98 7.98 0 2.994-.66 5.654-1.98 7.98-1.292 2.326-3.143 4.128-5.554 5.407-2.382 1.28-5.152 1.919-8.31 1.919H4.04V.436h11.323zm-.473 24.158c2.784 0 4.951-.77 6.501-2.311 1.55-1.54 2.325-3.721 2.325-6.541 0-2.82-.775-5.015-2.325-6.585-1.55-1.57-3.717-2.354-6.501-2.354h-3.488v17.791h3.488zM49.142 6.41v6.192h9.86v5.756h-9.86v6.716h11.152v5.974H41.78V.436h18.514V6.41H49.143zM82.467 31.353c-2.21 0-4.19-.363-5.941-1.09-1.751-.727-3.157-1.803-4.22-3.227-1.033-1.425-1.578-3.14-1.636-5.146h7.836c.115 1.134.503 2.006 1.163 2.617.66.581 1.521.872 2.583.872 1.09 0 1.952-.247 2.583-.741.632-.524.948-1.236.948-2.137 0-.756-.259-1.38-.775-1.875-.488-.494-1.105-.901-1.852-1.221-.717-.32-1.75-.683-3.1-1.09-1.951-.61-3.544-1.221-4.779-1.832-1.234-.61-2.296-1.511-3.186-2.703-.89-1.192-1.334-2.748-1.334-4.666 0-2.85 1.018-5.073 3.056-6.672C75.851.814 78.506 0 81.778 0c3.33 0 6.014.814 8.052 2.442 2.038 1.599 3.128 3.837 3.272 6.715h-7.965c-.058-.988-.416-1.758-1.077-2.31-.66-.582-1.507-.873-2.54-.873-.89 0-1.607.247-2.152.741-.546.466-.819 1.149-.819 2.05 0 .988.46 1.759 1.378 2.311.919.552 2.354 1.148 4.306 1.788 1.951.668 3.53 1.308 4.736 1.919 1.234.61 2.296 1.497 3.186 2.66.89 1.162 1.334 2.66 1.334 4.491 0 1.744-.445 3.329-1.334 4.753-.861 1.425-2.124 2.558-3.79 3.401-1.664.843-3.63 1.265-5.898 1.265zM122.002 31.048L111.841 17.53v13.518h-7.363V.436h7.363v13.43L121.915.437h8.654l-11.71 15L131 31.049h-8.998zM13.42 47.505c0 .87-.296 1.594-.888 2.174-.582.57-1.475.854-2.679.854H7.87v4.362H6.523V44.447h3.33c1.165 0 2.048.285 2.65.855.611.57.917 1.304.917 2.203zM9.853 49.41c.75 0 1.303-.165 1.658-.495.355-.33.533-.8.533-1.409 0-1.289-.73-1.934-2.19-1.934H7.87v3.838h1.983zM46.041 53.786h3.611v1.11h-4.958V44.446h1.347v9.339zM82 44.447v6.61c0 .93.222 1.62.666 2.07.454.449 1.08.674 1.88.674.789 0 1.405-.225 1.85-.675.453-.45.68-1.139.68-2.068v-6.61h1.347v6.595c0 .87-.173 1.604-.518 2.203a3.27 3.27 0 01-1.406 1.32c-.582.29-1.238.434-1.968.434s-1.392-.145-1.984-.435a3.29 3.29 0 01-1.39-1.319c-.336-.6-.504-1.334-.504-2.203v-6.596H82zM123.54 55c-.68 0-1.292-.12-1.835-.36-.533-.25-.952-.59-1.258-1.02a2.662 2.662 0 01-.473-1.513h1.435c.05.49.247.904.592 1.244.355.33.869.495 1.539.495.642 0 1.145-.16 1.51-.48.375-.33.562-.75.562-1.259 0-.4-.108-.724-.325-.974a2.084 2.084 0 00-.814-.57c-.326-.13-.765-.27-1.317-.42-.681-.18-1.229-.36-1.643-.54a2.731 2.731 0 01-1.051-.839c-.286-.39-.429-.91-.429-1.559 0-.57.143-1.074.429-1.514.286-.44.686-.78 1.199-1.019.523-.24 1.12-.36 1.791-.36.967 0 1.756.245 2.368.735.621.49.972 1.139 1.05 1.949h-1.48c-.049-.4-.256-.75-.621-1.05-.365-.31-.849-.465-1.451-.465-.562 0-1.021.15-1.376.45-.355.29-.533.7-.533 1.23 0 .38.104.689.311.929.217.24.479.424.784.554.316.12.755.26 1.318.42.68.19 1.228.38 1.642.57.415.18.77.464 1.066.854.296.38.444.9.444 1.559 0 .51-.133.99-.4 1.439-.266.45-.661.815-1.184 1.094-.522.28-1.139.42-1.85.42z" fill="#083C6E"/><path d="M0 12.651h15.473v6.133H0V12.65z" fill="#083C6E"/></svg>